<svg width="32" height="32" viewBox="0 0 32 32" fill="none" xmlns="http://www.w3.org/2000/svg">
<g clip-path="url(#clip0_1324_9)">
<path d="M16 32C24.8366 32 32 24.8366 32 16C32 7.16344 24.8366 0 16 0C7.16344 0 0 7.16344 0 16C0 24.8366 7.16344 32 16 32Z" fill="#2E3148"/>
<path d="M16 25.284C21.1274 25.284 25.284 21.1274 25.284 16C25.284 10.8726 21.1274 6.71606 16 6.71606C10.8726 6.71606 6.71606 10.8726 6.71606 16C6.71606 21.1274 10.8726 25.284 16 25.284Z" fill="#1B1E36"/>
<path d="M16.0329 2.04102C14.3058 2.04102 12.9053 8.30534 12.9053 16.0328C12.9053 23.7603 14.3058 30.0246 16.0329 30.0246C17.76 30.0246 19.1604 23.7603 19.1604 16.0328C19.1604 8.30534 17.76 2.04102 16.0329 2.04102ZM16.2488 29.235C16.0513 29.4984 15.8538 29.3008 15.8538 29.3008C15.0584 28.3792 14.6607 26.6671 14.6607 26.6671C13.2695 22.1898 13.6006 12.5766 13.6006 12.5766C14.2545 4.9447 15.4438 3.14182 15.8486 2.74156C15.8899 2.70071 15.9443 2.67575 16.0022 2.67106C16.0602 2.66638 16.1179 2.68228 16.1652 2.71596C16.7525 3.13209 17.245 4.87238 17.245 4.87238C18.6995 10.2715 18.5678 15.3415 18.5678 15.3415C18.6995 19.753 17.839 24.6913 17.839 24.6913C17.1766 28.4442 16.2488 29.235 16.2488 29.235Z" fill="#6F7390"/>
<path d="M28.1692 9.06988C27.3093 7.57126 21.1793 9.4741 14.4732 13.3195C7.76716 17.1649 3.0368 21.4973 3.89606 22.9953C4.75532 24.4932 10.886 22.591 17.5921 18.7457C24.2981 14.9003 29.0285 10.5679 28.1692 9.06988ZM4.6894 22.7897C4.36019 22.7482 4.43456 22.4776 4.43456 22.4776C4.8384 21.3293 6.12352 20.1323 6.12352 20.1323C9.31622 16.6973 17.82 12.2008 17.82 12.2008C24.7645 8.96978 26.9216 9.1061 27.4688 9.25676C27.525 9.27244 27.5738 9.30749 27.6066 9.3557C27.6394 9.40392 27.654 9.46218 27.648 9.52018C27.5822 10.237 26.3146 11.5298 26.3146 11.5298C22.3579 15.4797 17.8944 17.889 17.8944 17.889C14.1334 20.1994 9.42169 21.9093 9.42169 21.9093C5.83654 23.2012 4.68953 22.7897 4.68953 22.7897H4.6894Z" fill="#6F7390"/>
<path d="M28.1389 23.0453C29.0054 21.5507 24.2869 17.1984 17.6045 13.3241C10.922 9.44983 4.79269 7.52343 3.9269 9.02065C3.06111 10.5179 7.7788 14.8675 14.4651 18.7418C21.1515 22.6161 27.2731 24.5427 28.1389 23.0453ZM4.50111 9.59818C4.37311 9.29469 4.64332 9.22161 4.64332 9.22161C5.83961 8.99569 7.51999 9.5105 7.51999 9.5105C12.0915 10.5515 20.2432 15.6577 20.2432 15.6577C26.5194 20.0495 27.482 21.984 27.6262 22.5331C27.6409 22.5894 27.6352 22.6491 27.6101 22.7016C27.5851 22.7542 27.5423 22.7961 27.4893 22.8202C26.8348 23.1198 25.082 22.6734 25.082 22.6734C19.6795 21.2248 15.3588 18.5707 15.3588 18.5707C11.4767 16.4769 7.638 13.2551 7.638 13.2551C4.72114 10.7992 4.50201 9.60151 4.50201 9.60151L4.50111 9.59818Z" fill="#6F7390"/>
<path d="M16 17.6462C16.9091 17.6462 17.646 16.9092 17.646 16.0001C17.646 15.091 16.9091 14.354 16 14.354C15.0909 14.354 14.3539 15.091 14.3539 16.0001C14.3539 16.9092 15.0909 17.6462 16 17.6462Z" fill="#B7B9C8"/>
<path d="M22.7489 10.6667C23.2762 10.6667 23.7037 10.2245 23.7037 9.67905C23.7037 9.13359 23.2762 8.69141 22.7489 8.69141C22.2216 8.69141 21.7942 9.13359 21.7942 9.67905C21.7942 10.2245 22.2216 10.6667 22.7489 10.6667Z" fill="#B7B9C8"/>
<path d="M7.0781 14.0246C7.60539 14.0246 8.03285 13.5824 8.03285 13.037C8.03285 12.4915 7.60539 12.0493 7.0781 12.0493C6.55081 12.0493 6.12335 12.4915 6.12335 13.037C6.12335 13.5824 6.55081 14.0246 7.0781 14.0246Z" fill="#B7B9C8"/>
<path d="M14.0577 26.1401C14.5849 26.1401 15.0124 25.6979 15.0124 25.1524C15.0124 24.607 14.5849 24.1648 14.0577 24.1648C13.5304 24.1648 13.1029 24.607 13.1029 25.1524C13.1029 25.6979 13.5304 26.1401 14.0577 26.1401Z" fill="#B7B9C8"/>
</g>
<defs>
<clipPath id="clip0_1324_9">
<rect width="32" height="32" fill="white"/>
</clipPath>
</defs>
</svg>
