<svg width="32" height="32" viewBox="0 0 32 32" fill="none" xmlns="http://www.w3.org/2000/svg">
<g clip-path="url(#clip0_1324_12)">
<path d="M16 32C24.8366 32 32 24.8366 32 16C32 7.16344 24.8366 0 16 0C7.16344 0 0 7.16344 0 16C0 24.8366 7.16344 32 16 32Z" fill="#E84142"/>
<path d="M21.6449 16.416C22.2017 15.456 23.0913 15.456 23.6481 16.416L27.0977 22.4768C27.6545 23.4368 27.2001 24.2176 26.0929 24.2176H19.1361C18.0417 24.2176 17.5873 23.4368 18.1313 22.4768L21.6449 16.416ZM14.9697 4.74881C15.5265 3.78881 16.4033 3.78881 16.9601 4.74881L17.7281 6.13761L19.5393 9.32481C19.9809 10.2336 19.9809 11.3024 19.5393 12.2112L13.4529 22.7584C12.8961 23.616 11.9809 24.16 10.9569 24.2176H5.90726C4.80006 24.2176 4.34566 23.4496 4.90246 22.4768L14.9697 4.74881Z" fill="white"/>
</g>
<defs>
<clipPath id="clip0_1324_12">
<rect width="32" height="32" fill="white"/>
</clipPath>
</defs>
</svg>
