<svg width="32" height="32" viewBox="0 0 32 32" fill="none" xmlns="http://www.w3.org/2000/svg">
<g clip-path="url(#clip0_1287_8)">
<path d="M15.9731 31.0322C24.392 31.0322 31.2169 24.2073 31.2169 15.7884C31.2169 7.36946 24.392 0.544556 15.9731 0.544556C7.55415 0.544556 0.729248 7.36946 0.729248 15.7884C0.729248 24.2073 7.55415 31.0322 15.9731 31.0322Z" fill="url(#paint0_radial_1287_8)"/>
<path d="M16.5509 28.2504C22.7208 28.2504 27.7224 23.5647 27.7224 17.7846C27.7224 12.0044 22.7208 7.31873 16.5509 7.31873C10.381 7.31873 5.37927 12.0044 5.37927 17.7846C5.37927 23.5647 10.381 28.2504 16.5509 28.2504Z" fill="url(#paint1_linear_1287_8)"/>
<path d="M16.0787 31.2396C22.7399 31.2396 28.14 26.1808 28.14 19.9404C28.14 13.7 22.7399 8.64111 16.0787 8.64111C9.41746 8.64111 4.01746 13.7 4.01746 19.9404C4.01746 26.1808 9.41746 31.2396 16.0787 31.2396Z" fill="url(#paint2_radial_1287_8)"/>
<path d="M12.6991 26.2387C12.644 26.2328 11.3417 26.0897 10.6646 25.7027C10.5494 25.6369 7.82885 24.067 6.74156 22.1099C5.82489 20.4598 4.27231 17.4791 4.1742 16.0554C4.08492 14.7613 4.15513 11.9902 4.61266 11.0752C4.64453 11.0115 4.68389 10.9244 4.73375 10.8139C5.03218 10.1527 5.65324 8.77697 6.88633 7.56193C8.41471 6.05595 10.375 5.29051 12.7126 5.28692C12.7281 5.28673 14.4141 5.26593 16.311 5.26593C17.4253 5.26593 18.3935 5.27297 19.1886 5.28699C21.7132 5.33127 23.73 5.54478 24.6898 5.71419L24.8553 5.74305C25.5282 5.85959 25.78 5.90324 25.8344 6.39316C25.881 6.81281 26.2557 9.85761 26.2595 9.88833L26.2696 9.97044L23.9437 11.3825H26.4429L26.6893 16.062L23.9732 18.0451H26.4255L25.5871 23.0268L20.9253 25.6701L12.7104 26.2399L12.6991 26.2387Z" fill="url(#paint3_linear_1287_8)"/>
<path d="M16.311 5.39394C17.2702 5.39394 18.2885 5.39919 19.1864 5.41493C21.8798 5.46216 23.8643 5.69845 24.6677 5.84021C25.4709 5.98197 25.66 5.98197 25.7072 6.40725C25.7545 6.83253 26.1325 9.90389 26.1325 9.90389L23.4864 11.5105H26.3215L26.5578 15.9994L23.5809 18.173H26.2743L25.471 22.9455L20.8875 25.5443L12.7129 26.1114C12.7129 26.1114 11.3899 25.9696 10.7283 25.5916C10.0668 25.2136 7.79868 23.7488 6.85366 22.0477C5.90863 20.3466 4.39657 17.417 4.30204 16.0467C4.20751 14.6764 4.30204 11.983 4.72732 11.1324C5.1526 10.2819 6.85359 5.42389 12.7129 5.41493C12.7128 5.41493 14.393 5.39394 16.311 5.39394ZM16.311 5.13794C14.4134 5.13794 12.7264 5.15874 12.7097 5.15893C10.3401 5.16252 8.34966 5.94037 6.7965 7.47074C5.54639 8.70255 4.91874 10.093 4.61711 10.7612C4.56982 10.8661 4.52892 10.9566 4.49826 11.0179C4.03036 11.9538 3.95644 14.7576 4.04655 16.0643C4.14646 17.5126 5.70793 20.5127 6.62978 22.172C7.73417 24.16 10.4847 25.7472 10.6012 25.8138C11.3012 26.2138 12.6294 26.3599 12.6856 26.3659L12.7081 26.3683L12.7306 26.3668L20.9052 25.7998L20.9632 25.7957L21.0137 25.7671L25.5972 23.1682L25.7032 23.1081L25.7234 22.988L26.5267 18.2155L26.5769 17.917H26.2742H24.3655L26.7086 16.2062L26.8206 16.1244L26.8133 15.986L26.5771 11.497L26.5643 11.2545H26.3214H24.4012L26.2653 10.1227L26.4067 10.0368L26.3865 9.8726C26.3827 9.84188 26.0082 6.79784 25.9616 6.37896C25.8966 5.79349 25.5559 5.73448 24.8772 5.61692C24.8253 5.60789 24.7703 5.59842 24.7122 5.58812C23.7477 5.41794 21.723 5.20341 19.1909 5.159C18.3951 5.14504 17.4261 5.13794 16.311 5.13794Z" fill="#692CC2"/>
<path d="M4.44238 16.0573C4.44238 16.0573 4.57038 17.7213 5.25307 19.2574C5.93576 20.7934 7.60289 23.2227 8.1972 23.8656C9.08168 24.8222 10.8002 25.9434 11.8669 26.0714C12.9336 26.1994 15.849 25.9962 16.509 25.987C16.9378 25.981 20.4179 25.6297 20.8873 25.5444C21.3567 25.459 25.3587 23.1677 25.4708 22.9455C25.5624 22.7638 25.6133 22.0989 25.6133 22.0989L22.353 22.8494L12.5314 23.3135C12.2099 23.3264 11.7313 23.2736 11.3532 23.2408C10.8773 23.1995 10.4223 23.1099 9.86958 22.9353C9.27714 22.7483 8.53589 22.3652 7.93064 21.906C7.07918 21.2601 6.05825 20.2458 5.46657 18.7881C5.09077 17.8625 4.44238 16.0573 4.44238 16.0573Z" fill="white"/>
<path d="M9.16882 11.5577L10.3501 9.95109C10.3501 9.95109 10.3029 9.5258 12.5237 9.47857C14.7445 9.43134 25.6125 9.80933 25.6125 9.80933L23.3917 11.5577H9.16882Z" fill="url(#paint4_linear_1287_8)"/>
<path d="M25.9908 16.0467L23.2029 18.173L10.8701 18.5511C10.8701 18.5511 9.78328 17.6533 9.59423 17.2989C9.40523 16.9445 9.16895 16.472 9.16895 16.472C9.16895 16.472 22.0216 16.3774 23.2501 16.3302C24.4787 16.2829 25.9908 16.0467 25.9908 16.0467Z" fill="url(#paint5_linear_1287_8)"/>
<path d="M24.573 23.0873C24.573 23.0873 20.9819 25.2136 20.6983 25.3081C20.4148 25.4026 13.574 25.875 12.9017 25.8752C12.0345 25.8754 10.9644 25.5916 10.2556 25.0719C9.54679 24.5521 8.46001 23.5126 8.22372 23.0873C7.98743 22.662 7.32593 21.906 7.32593 21.906C7.32593 21.906 8.93252 22.9456 10.0665 23.2763C11.2006 23.6071 13.5904 23.5322 14.6773 23.4849C15.7641 23.4377 24.573 23.0873 24.573 23.0873Z" fill="url(#paint6_linear_1287_8)"/>
<path d="M23.2393 4.33493C23.2393 4.33493 20.7187 3.57877 19.0984 3.6148C17.478 3.65083 15.3896 3.79483 14.3093 4.15489C13.2291 4.51496 12.797 4.73102 12.797 4.73102C12.797 4.73102 13.4812 5.55918 13.4092 6.35137C13.3372 7.14356 12.545 8.07975 11.6088 8.33179C10.6726 8.58382 9.73639 8.72788 9.01619 8.58382C8.296 8.43982 6.63968 7.50356 6.63968 7.50356L5.37939 6.60334C5.37939 6.60334 6.63968 4.87496 8.72813 3.86677C10.8166 2.85858 12.9411 1.99438 15.6056 1.99438C18.2702 1.99438 20.1786 2.60654 21.2949 3.14664C22.4111 3.6868 23.2393 4.33493 23.2393 4.33493Z" fill="white"/>
<path d="M5.37927 6.60339C5.37927 6.60339 4.42061 7.81671 4.17747 8.35149C3.93434 8.88634 3.1321 10.4422 2.98624 11.9738C2.84038 13.5053 2.81606 14.6923 2.98624 15.4967C3.15642 16.3011 3.44813 17.4194 3.44813 17.4194C3.44813 17.4194 4.44486 13.3109 4.59072 12.3142C4.73658 11.3174 5.4416 9.20243 6.04935 8.47309C6.65709 7.74375 7.21626 6.86861 7.21626 6.86861L5.37927 6.60339Z" fill="url(#paint7_linear_1287_8)"/>
<path d="M7.21625 6.86853C7.21625 6.86853 6.15327 8.25618 5.92403 8.64101C5.69478 9.02584 4.74624 10.5466 4.68793 11.3174C4.62963 12.0881 4.46912 13.7241 4.46912 13.7241C4.46912 13.7241 6.17087 10.661 6.63276 10.1261C7.09465 9.59128 8.43173 7.81663 8.43173 7.81663L7.21625 6.86853Z" fill="url(#paint8_linear_1287_8)"/>
</g>
<defs>
<radialGradient id="paint0_radial_1287_8" cx="0" cy="0" r="1" gradientUnits="userSpaceOnUse" gradientTransform="translate(8.69737 6.38591) scale(16.4558 16.4558)">
<stop stop-color="#21FFE3"/>
<stop offset="1" stop-color="#8549DF"/>
</radialGradient>
<linearGradient id="paint1_linear_1287_8" x1="17.0442" y1="28.267" x2="16.1487" y2="9.2382" gradientUnits="userSpaceOnUse">
<stop stop-color="#21FFE3"/>
<stop offset="1" stop-color="#8549DF"/>
</linearGradient>
<radialGradient id="paint2_radial_1287_8" cx="0" cy="0" r="1" gradientUnits="userSpaceOnUse" gradientTransform="translate(16.0787 19.9404) scale(14.2632 14.2632)">
<stop stop-color="#21FFE3"/>
<stop offset="0.1916" stop-color="#23FCE3" stop-opacity="0.8084"/>
<stop offset="0.3419" stop-color="#28F2E3" stop-opacity="0.6581"/>
<stop offset="0.478" stop-color="#31E1E2" stop-opacity="0.522"/>
<stop offset="0.6059" stop-color="#3ECAE2" stop-opacity="0.3941"/>
<stop offset="0.728" stop-color="#4FACE1" stop-opacity="0.272"/>
<stop offset="0.8458" stop-color="#6386E0" stop-opacity="0.1542"/>
<stop offset="0.958" stop-color="#7B5BDF" stop-opacity="0.042"/>
<stop offset="1" stop-color="#8549DF" stop-opacity="0"/>
</radialGradient>
<linearGradient id="paint3_linear_1287_8" x1="5.68441" y1="8.50576" x2="25.1975" y2="19.975" gradientUnits="userSpaceOnUse">
<stop stop-color="#21FFE3"/>
<stop offset="1" stop-color="#F8FFFB"/>
</linearGradient>
<linearGradient id="paint4_linear_1287_8" x1="9.1688" y1="10.5161" x2="25.6125" y2="10.5161" gradientUnits="userSpaceOnUse">
<stop stop-color="#692CC2"/>
<stop offset="0.5189" stop-color="#3E5BDE"/>
<stop offset="1" stop-color="#229EE7"/>
</linearGradient>
<linearGradient id="paint5_linear_1287_8" x1="9.16898" y1="17.2989" x2="25.9907" y2="17.2989" gradientUnits="userSpaceOnUse">
<stop stop-color="#692CC2"/>
<stop offset="0.5189" stop-color="#3E5BDE"/>
<stop offset="1" stop-color="#229EE7"/>
</linearGradient>
<linearGradient id="paint6_linear_1287_8" x1="7.32601" y1="23.8905" x2="24.5731" y2="23.8905" gradientUnits="userSpaceOnUse">
<stop stop-color="#677CF4"/>
<stop offset="0.2764" stop-color="#374CD7"/>
<stop offset="0.3631" stop-color="#3752D8"/>
<stop offset="0.4747" stop-color="#3562DB"/>
<stop offset="0.5999" stop-color="#337CE1"/>
<stop offset="0.7351" stop-color="#30A1E9"/>
<stop offset="0.8766" stop-color="#2DD0F2"/>
<stop offset="1" stop-color="#29FFFC"/>
</linearGradient>
<linearGradient id="paint7_linear_1287_8" x1="5.20336" y1="9.25964" x2="2.27845" y2="16.7049" gradientUnits="userSpaceOnUse">
<stop stop-color="#F8FFFB"/>
<stop offset="1" stop-color="#F8FFFB" stop-opacity="0"/>
</linearGradient>
<linearGradient id="paint8_linear_1287_8" x1="6.53119" y1="9.66364" x2="6.0434" y2="16.3534" gradientUnits="userSpaceOnUse">
<stop stop-color="#F8FFFB"/>
<stop offset="1" stop-color="#F8FFFB" stop-opacity="0"/>
</linearGradient>
<clipPath id="clip0_1287_8">
<rect width="32" height="32" fill="white"/>
</clipPath>
</defs>
</svg>
