<svg width="32" height="32" viewBox="0 0 32 32" fill="none" xmlns="http://www.w3.org/2000/svg">
<g clip-path="url(#clip0_1287_9)">
<path d="M16 32C24.8366 32 32 24.8366 32 16C32 7.16344 24.8366 0 16 0C7.16344 0 0 7.16344 0 16C0 24.8366 7.16344 32 16 32Z" fill="url(#paint0_linear_1287_9)"/>
<path d="M9.43023 10.7488C9.6153 10.4027 9.88269 10.1074 10.2088 9.889L15.6786 6.05658L10.0742 15.3551C10.0742 15.3551 9.58447 14.5247 9.39349 14.1046C9.15548 13.5762 9.03548 13.0022 9.04182 12.4227C9.04817 11.8431 9.18071 11.2719 9.43023 10.7488ZM7.17276 17.1632C7.2341 18.0517 7.48422 18.9169 7.90643 19.701C8.32864 20.4852 8.91324 21.1702 9.6212 21.7105L15.6713 25.9434C15.6713 25.9434 11.886 20.4699 8.69326 15.0235C8.36994 14.4478 8.15266 13.8187 8.05177 13.1662C8.00708 12.8706 8.00708 12.57 8.05177 12.2744C7.96853 12.4292 7.80693 12.7461 7.80693 12.7461C7.48313 13.4088 7.26266 14.1172 7.15319 14.8465C7.09015 15.6178 7.0967 16.3932 7.17276 17.1632ZM22.5979 17.9002C22.402 17.4801 21.9173 16.6498 21.9173 16.6498L16.3226 25.9434L21.7924 22.1134C22.1185 21.895 22.3859 21.5997 22.571 21.2536C22.8205 20.7304 22.9531 20.1592 22.9594 19.5797C22.9658 19.0002 22.8457 18.4262 22.6077 17.8977L22.5979 17.9002ZM24.8186 14.8392C24.7573 13.9507 24.5072 13.0856 24.085 12.3014C23.6628 11.5173 23.0782 10.8322 22.3702 10.2919L16.3299 6.05658C16.3299 6.05658 20.1128 11.5301 23.3079 16.9765C23.6304 17.5523 23.8469 18.1814 23.947 18.8338C23.9917 19.1294 23.9917 19.43 23.947 19.7256C24.0303 19.5707 24.1918 19.2538 24.1918 19.2538C24.5157 18.5911 24.7361 17.8828 24.8456 17.1534C24.9095 16.3822 24.9037 15.6069 24.8284 14.8367L24.8186 14.8392Z" fill="white"/>
</g>
<defs>
<linearGradient id="paint0_linear_1287_9" x1="24.0013" y1="29.8587" x2="7.99866" y2="2.14128" gradientUnits="userSpaceOnUse">
<stop offset="0.0454" stop-color="#44BCF0"/>
<stop offset="0.592" stop-color="#7298F8"/>
<stop offset="1" stop-color="#A099FF"/>
</linearGradient>
<clipPath id="clip0_1287_9">
<rect width="32" height="32" fill="white"/>
</clipPath>
</defs>
</svg>
