<svg width="32" height="32" viewBox="0 0 32 32" fill="none" xmlns="http://www.w3.org/2000/svg">
<g clip-path="url(#clip0_1303_107)">
<path d="M16 32C24.8366 32 32 24.8366 32 16C32 7.16344 24.8366 0 16 0C7.16344 0 0 7.16344 0 16C0 24.8366 7.16344 32 16 32Z" fill="#5546FF"/>
<path d="M22.528 24.4305L19.0837 19.0238H24.0299V16.9812H7.80957V19.0238H12.7558L9.31145 24.4305H11.8747L15.9198 18.0826L19.9648 24.4305H22.528ZM24.0299 14.9987V12.9562H19.1838L22.5881 7.6095H20.0049L15.9198 14.0576L11.8346 7.6095H9.25138L12.6557 12.9562H7.80957V15.0188L24.0299 14.9987Z" fill="white"/>
</g>
<defs>
<clipPath id="clip0_1303_107">
<rect width="32" height="32" fill="white"/>
</clipPath>
</defs>
</svg>
