<svg width="32" height="32" viewBox="0 0 32 32" fill="none" xmlns="http://www.w3.org/2000/svg">
<g clip-path="url(#clip0_1297_62)">
<path d="M16 32C24.8366 32 32 24.8366 32 16C32 7.16344 24.8366 0 16 0C7.16344 0 0 7.16344 0 16C0 24.8366 7.16344 32 16 32Z" fill="url(#paint0_linear_1297_62)"/>
<path d="M12.2613 5.76699C11.9763 5.72299 11.9643 5.71699 12.0983 5.69699C12.3553 5.65699 12.9633 5.71199 13.3823 5.81099C14.3593 6.04399 15.2483 6.63899 16.1983 7.69599L16.4503 7.97599L16.8103 7.91899C18.3303 7.67399 19.8773 7.86899 21.1703 8.46599C21.5263 8.62999 22.0873 8.95699 22.1573 9.04199C22.1803 9.06799 22.2213 9.24099 22.2483 9.42499C22.3443 10.062 22.2963 10.55 22.1023 10.915C21.9963 11.113 21.9903 11.175 22.0613 11.345C22.095 11.4152 22.1477 11.4746 22.2135 11.5163C22.2792 11.558 22.3554 11.5804 22.4333 11.581C22.7553 11.581 23.1013 11.061 23.2613 10.338L23.3253 10.051L23.4513 10.194C24.1433 10.978 24.6863 12.047 24.7793 12.807L24.8043 13.006L24.6873 12.826C24.4873 12.516 24.2873 12.304 24.0293 12.133C23.5653 11.826 23.0743 11.722 21.7743 11.653C20.6003 11.591 19.9353 11.491 19.2773 11.276C18.1563 10.911 17.5913 10.424 16.2593 8.67699C15.6683 7.90099 15.3023 7.47199 14.9393 7.12699C14.1123 6.34099 13.3003 5.92899 12.2613 5.76699Z" fill="#FF007A"/>
<path d="M22.4222 7.50002C22.4522 6.98002 22.5222 6.63702 22.6642 6.32402C22.7202 6.20002 22.7732 6.09802 22.7812 6.09802C22.7723 6.16822 22.7538 6.23686 22.7262 6.30202C22.6232 6.60602 22.6062 7.02202 22.6772 7.50502C22.7672 8.11902 22.8192 8.20702 23.4672 8.87002C23.7722 9.18102 24.1262 9.57302 24.2542 9.74202L24.4872 10.048L24.2542 9.82902C23.9692 9.56202 23.3132 9.03902 23.1682 8.96502C23.0712 8.91502 23.0562 8.91602 22.9962 8.97502C22.9412 9.03102 22.9292 9.11302 22.9222 9.50402C22.9102 10.112 22.8272 10.504 22.6262 10.894C22.5182 11.104 22.5012 11.06 22.5992 10.821C22.6722 10.643 22.6792 10.565 22.6792 9.97602C22.6792 8.79202 22.5382 8.50802 21.7132 8.02002C21.465 7.87598 21.21 7.74383 20.9492 7.62402C20.8204 7.57234 20.6954 7.51151 20.5752 7.44202C20.5982 7.41902 21.4022 7.65302 21.7252 7.77802C22.2072 7.96302 22.2862 7.98702 22.3452 7.96402C22.3842 7.94902 22.4032 7.83502 22.4222 7.50002ZM12.8152 9.52502C12.2362 8.72802 11.8782 7.50502 11.9552 6.59102L11.9792 6.30802L12.1112 6.33202C12.3592 6.37702 12.7862 6.53602 12.9862 6.65802C13.5342 6.99102 13.7722 7.43002 14.0132 8.55602C14.0842 8.88602 14.1772 9.25902 14.2202 9.38602C14.2882 9.58902 14.5482 10.064 14.7602 10.373C14.9122 10.595 14.8102 10.7 14.4742 10.67C13.9602 10.623 13.2642 10.143 12.8152 9.52502ZM21.7202 15.46C19.0132 14.37 18.0602 13.424 18.0602 11.828C18.0602 11.593 18.0682 11.401 18.0772 11.401C18.0872 11.401 18.1922 11.478 18.3102 11.573C18.8592 12.013 19.4742 12.201 21.1752 12.449C22.1762 12.596 22.7402 12.714 23.2602 12.886C24.9122 13.434 25.9342 14.546 26.1782 16.06C26.2482 16.5 26.2072 17.325 26.0922 17.76C26.0022 18.104 25.7252 18.723 25.6522 18.747C25.6322 18.753 25.6122 18.676 25.6062 18.569C25.5782 18.001 25.2912 17.447 24.8082 17.032C24.2592 16.561 23.5222 16.185 21.7192 15.46H21.7202ZM19.8202 15.912C19.7882 15.7189 19.7445 15.5278 19.6892 15.34L19.6192 15.134L19.7482 15.278C19.9252 15.478 20.0662 15.732 20.1842 16.072C20.2752 16.331 20.2852 16.408 20.2842 16.829C20.2842 17.243 20.2732 17.329 20.1892 17.563C20.0724 17.9061 19.8768 18.2171 19.6182 18.471C19.1232 18.975 18.4882 19.253 17.5702 19.369C17.4102 19.389 16.9462 19.423 16.5372 19.444C15.5072 19.498 14.8302 19.608 14.2212 19.822C14.1663 19.8466 14.1073 19.8609 14.0472 19.864C14.0232 19.839 14.4372 19.592 14.7802 19.427C15.2632 19.194 15.7432 19.067 16.8202 18.888C17.3522 18.799 17.9022 18.692 18.0412 18.649C19.3592 18.245 20.0362 17.203 19.8192 15.912H19.8202Z" fill="#FF007A"/>
<path d="M21.0602 18.116C20.7002 17.343 20.6182 16.596 20.8152 15.9C20.8362 15.826 20.8702 15.765 20.8902 15.765C20.9579 15.7895 21.0216 15.8239 21.0792 15.867C21.2452 15.979 21.5772 16.167 22.4622 16.649C23.5672 17.252 24.1972 17.719 24.6262 18.251C25.0012 18.718 25.2332 19.25 25.3452 19.898C25.4082 20.265 25.3712 21.148 25.2772 21.518C24.9802 22.684 24.2892 23.6 23.3052 24.134C23.2124 24.1877 23.1162 24.2355 23.0172 24.277C23.0032 24.277 23.0552 24.144 23.1342 23.98C23.4642 23.288 23.5032 22.614 23.2522 21.864C23.0992 21.405 22.7862 20.844 22.1552 19.898C21.4212 18.798 21.2412 18.504 21.0602 18.116ZM10.8932 22.287C11.8982 21.439 13.1472 20.837 14.2862 20.652C14.7762 20.572 15.5942 20.604 16.0482 20.72C16.7762 20.906 17.4282 21.324 17.7672 21.821C18.0972 22.307 18.2402 22.731 18.3872 23.673C18.4472 24.045 18.5102 24.418 18.5292 24.503C18.6392 24.991 18.8562 25.382 19.1242 25.578C19.5492 25.889 20.2822 25.908 21.0022 25.628C21.0775 25.5935 21.1568 25.5686 21.2382 25.554C21.2642 25.58 20.9022 25.823 20.6462 25.951C20.3442 26.1127 20.0058 26.1946 19.6632 26.189C19.0032 26.189 18.4552 25.854 17.9982 25.169C17.9082 25.034 17.7062 24.631 17.5482 24.272C17.0662 23.172 16.8282 22.836 16.2682 22.469C15.7792 22.149 15.1502 22.092 14.6772 22.324C14.0552 22.629 13.8822 23.424 14.3272 23.927C14.5042 24.127 14.8342 24.3 15.1042 24.333C15.222 24.3486 15.3418 24.3388 15.4554 24.3041C15.5691 24.2694 15.6739 24.2108 15.763 24.1321C15.852 24.0534 15.9231 23.9565 15.9714 23.848C16.0198 23.7395 16.0443 23.6218 16.0432 23.503C16.0432 23.171 15.9152 22.983 15.5952 22.838C15.1582 22.641 14.6882 22.871 14.6902 23.282C14.6912 23.457 14.7672 23.567 14.9432 23.647C15.0562 23.697 15.0582 23.702 14.9662 23.683C14.5652 23.599 14.4712 23.116 14.7942 22.795C15.1812 22.409 15.9822 22.579 16.2572 23.105C16.3732 23.326 16.3862 23.767 16.2852 24.033C16.0602 24.628 15.4022 24.94 14.7352 24.77C14.2812 24.654 14.0962 24.529 13.5492 23.965C12.5982 22.985 12.2292 22.795 10.8572 22.581L10.5942 22.54L10.8942 22.287H10.8932Z" fill="#FF007A"/>
<path fill-rule="evenodd" clip-rule="evenodd" d="M6.19629 3.34997L6.29229 3.46697C10.0003 8.00697 11.9163 10.363 12.0383 10.531C12.2383 10.809 12.1633 11.058 11.8193 11.254C11.6283 11.363 11.2343 11.473 11.0383 11.473C10.8153 11.473 10.5643 11.366 10.3813 11.193C10.2523 11.07 9.73129 10.292 8.52829 8.42497C7.96494 7.54257 7.39426 6.66487 6.81629 5.79197C6.76729 5.74597 6.76829 5.74697 8.43429 8.72797C9.48029 10.6 9.83429 11.261 9.83429 11.35C9.83429 11.53 9.78429 11.624 9.56229 11.872C9.19229 12.285 9.02729 12.749 8.90729 13.709C8.77329 14.786 8.39729 15.546 7.35329 16.847C6.74329 17.609 6.64329 17.749 6.48829 18.056C6.29429 18.442 6.24129 18.659 6.21929 19.147C6.19629 19.663 6.24129 19.997 6.39929 20.49C6.53729 20.922 6.68129 21.208 7.04929 21.778C7.36729 22.271 7.55029 22.637 7.55029 22.78C7.55029 22.894 7.57229 22.894 8.06529 22.783C9.24429 22.517 10.2013 22.048 10.7403 21.474C11.0733 21.119 11.1513 20.923 11.1543 20.436C11.1553 20.118 11.1443 20.051 11.0583 19.868C10.9183 19.57 10.6633 19.322 10.1013 18.938C9.36429 18.434 9.05029 18.028 8.96329 17.471C8.89129 17.014 8.97429 16.691 9.38229 15.837C9.80329 14.953 9.90829 14.577 9.97929 13.686C10.0243 13.11 10.0873 12.883 10.2533 12.701C10.4253 12.511 10.5813 12.446 11.0083 12.388C11.7043 12.293 12.1473 12.113 12.5113 11.778C12.8273 11.486 12.9593 11.205 12.9793 10.783L12.9953 10.463L12.8183 10.257C12.5643 9.96097 10.4633 7.64297 6.51429 3.30097L6.40829 3.18597L6.19629 3.35097V3.34997ZM7.91029 19.732C7.98005 19.6084 8.00089 19.4632 7.96866 19.3251C7.93644 19.1869 7.85351 19.0659 7.73629 18.986C7.50829 18.834 7.15329 18.906 7.15329 19.104C7.15329 19.164 7.18629 19.208 7.26129 19.247C7.38829 19.312 7.39729 19.386 7.29829 19.535C7.19729 19.687 7.20529 19.821 7.32129 19.912C7.50729 20.058 7.77129 19.977 7.91129 19.732H7.91029ZM13.4343 12.556C13.1073 12.656 12.7903 13.003 12.6913 13.366C12.6313 13.587 12.6653 13.976 12.7553 14.096C12.9003 14.29 13.0413 14.341 13.4213 14.338C14.1653 14.333 14.8113 14.014 14.8873 13.615C14.9493 13.288 14.6643 12.835 14.2733 12.635C14.0713 12.533 13.6423 12.492 13.4343 12.556ZM14.3043 13.236C14.4193 13.073 14.3683 12.896 14.1743 12.778C13.8023 12.551 13.2403 12.738 13.2403 13.09C13.2403 13.264 13.5333 13.455 13.8013 13.455C13.9813 13.455 14.2253 13.348 14.3043 13.236Z" fill="#FF007A"/>
</g>
<defs>
<linearGradient id="paint0_linear_1297_62" x1="27.5" y1="4.5" x2="4.5" y2="27.5" gradientUnits="userSpaceOnUse">
<stop stop-color="#FFA3CA"/>
<stop offset="1" stop-color="#FFF0F6"/>
</linearGradient>
<clipPath id="clip0_1297_62">
<rect width="32" height="32" fill="white"/>
</clipPath>
</defs>
</svg>
